<svg xmlns="http://www.w3.org/2000/svg" viewBox="0 0 2048 243" width="2048" height="243">
	<style>
		tspan { white-space:pre }
		.shp0 { fill: #3891a6 } 
	</style>
	<g id="document">
		<g id="Layer">
			<path id="Layer" class="shp0" d="M1025.96 109.14L1053.39 81.71C1068.54 66.55 1068.54 42.02 1053.39 26.86C1038.23 11.7 1013.69 11.7 998.53 26.86C983.38 42.02 983.38 66.55 998.53 81.71L1025.96 109.14Z" />
			<path id="Layer" class="shp0" d="M1033.69 119.88L1061.12 147.31C1076.28 162.47 1100.82 162.47 1115.97 147.31C1131.13 132.15 1131.13 107.61 1115.97 92.46C1100.82 77.3 1076.28 77.3 1061.12 92.46L1033.69 119.88Z" />
			<path id="Layer" class="shp0" d="M1025.96 128.75L998.53 156.18C983.38 171.33 983.38 195.87 998.53 211.03C1013.69 226.18 1038.23 226.18 1053.39 211.03C1068.54 195.87 1068.54 171.33 1053.39 156.18L1025.96 128.75Z" />
			<path id="Layer" class="shp0" d="M1018.48 119.88L991.05 92.46C975.89 77.3 951.36 77.3 936.2 92.46C921.04 107.61 921.04 132.15 936.2 147.31C951.36 162.47 975.89 162.47 991.05 147.31L1018.48 119.88Z" />
		</g>
		<g id="Layer">
			<path id="Layer" class="shp0" d="M1238.83 111.35C1234.05 130.66 1245.83 150.18 1265.13 154.96C1284.44 159.73 1303.96 147.95 1308.74 128.65C1313.51 109.34 1301.74 89.82 1282.43 85.04C1263.13 80.27 1243.6 92.05 1238.83 111.35Z" />
			<path id="Layer" class="shp0" d="M1351.16 114.18C1346.38 133.49 1358.16 153.01 1377.47 157.79C1396.77 162.56 1416.3 150.78 1421.07 131.48C1425.85 112.17 1414.07 92.65 1394.76 87.87C1375.46 83.1 1355.94 94.88 1351.16 114.18Z" />
			<path id="Layer" class="shp0" d="M1575.83 114.18C1571.05 133.49 1582.83 153.01 1602.13 157.79C1621.44 162.56 1640.96 150.78 1645.74 131.48C1650.51 112.17 1638.74 92.65 1619.43 87.87C1600.12 83.1 1580.6 94.88 1575.83 114.18Z" />
			<path id="Layer" class="shp0" d="M1688.16 111.35C1683.38 130.66 1695.16 150.18 1714.47 154.96C1733.77 159.73 1753.29 147.95 1758.07 128.65C1762.85 109.34 1751.07 89.82 1731.76 85.04C1712.46 80.27 1692.93 92.05 1688.16 111.35Z" />
			<path id="Layer" class="shp0" d="M1912.82 111.35C1908.05 130.66 1919.83 150.18 1939.13 154.96C1958.44 159.73 1977.96 147.95 1982.74 128.65C1987.51 109.34 1975.73 89.82 1956.43 85.04C1937.12 80.27 1917.6 92.05 1912.82 111.35Z" />
			<path id="Layer" class="shp0" d="M1800.49 111.35C1795.72 130.66 1807.49 150.18 1826.8 154.96C1846.1 159.73 1865.63 147.95 1870.4 128.65C1875.18 109.34 1863.4 89.82 1844.1 85.04C1824.79 80.27 1805.27 92.05 1800.49 111.35Z" />
			<path id="Layer" class="shp0" d="M1463.49 111.35C1458.72 130.66 1470.49 150.18 1489.8 154.96C1509.11 159.73 1528.63 147.95 1533.4 128.65C1538.18 109.34 1526.4 89.82 1507.1 85.04C1487.79 80.27 1468.27 92.05 1463.49 111.35Z" />
		</g>
		<g id="Layer">
			<path id="Layer" class="shp0" d="M69.43 111.35C64.66 130.66 76.44 150.18 95.74 154.96C115.05 159.73 134.57 147.95 139.35 128.65C144.12 109.34 132.35 89.82 113.04 85.04C93.73 80.27 74.21 92.05 69.43 111.35Z" />
			<path id="Layer" class="shp0" d="M181.77 114.18C176.99 133.49 188.77 153.01 208.08 157.79C227.38 162.56 246.9 150.78 251.68 131.48C256.46 112.17 244.68 92.65 225.37 87.87C206.07 83.1 186.54 94.88 181.77 114.18Z" />
			<path id="Layer" class="shp0" d="M406.43 114.18C401.66 133.49 413.44 153.01 432.74 157.79C452.05 162.56 471.57 150.78 476.35 131.48C481.12 112.17 469.34 92.65 450.04 87.87C430.73 83.1 411.21 94.88 406.43 114.18Z" />
			<path id="Layer" class="shp0" d="M518.77 111.35C513.99 130.66 525.77 150.18 545.08 154.96C564.38 159.73 583.9 147.95 588.68 128.65C593.46 109.34 581.68 89.82 562.37 85.04C543.07 80.27 523.54 92.05 518.77 111.35Z" />
			<path id="Layer" class="shp0" d="M743.43 111.35C738.66 130.66 750.44 150.18 769.74 154.96C789.05 159.73 808.57 147.95 813.35 128.65C818.12 109.34 806.34 89.82 787.04 85.04C767.73 80.27 748.21 92.05 743.43 111.35Z" />
			<path id="Layer" class="shp0" d="M631.1 111.35C626.32 130.66 638.1 150.18 657.41 154.96C676.71 159.73 696.24 147.95 701.01 128.65C705.79 109.34 694.01 89.82 674.7 85.04C655.4 80.27 635.88 92.05 631.1 111.35Z" />
			<path id="Layer" class="shp0" d="M294.1 111.35C289.33 130.66 301.1 150.18 320.41 154.96C339.72 159.73 359.24 147.95 364.01 128.65C368.79 109.34 357.01 89.82 337.7 85.04C318.4 80.27 298.88 92.05 294.1 111.35Z" />
		</g>
	</g>
</svg>